<?xml version="1.0" encoding="UTF-8"?>
<svg xmlns="http://www.w3.org/2000/svg" id="Layer_1" data-name="Layer 1" viewBox="0 0 64 64">
  <defs>
    <style>
      .cls-1 {
        fill: none;
      }

      .cls-2 {
        fill: #005496;
      }

      .cls-3 {
        fill: #1383c6;
      }

      .cls-4 {
        fill: #44a8df;
      }
    </style>
  </defs>
  <rect class="cls-1" width="64" height="64"></rect>
  <g>
    <path class="cls-4" d="m54,32c0,4.29246-9.84974,7.77219-22,7.77219-2.57015,0-5.0376-.15593-7.33044-.44129-.28623-2.29309-.44175-4.7604-.44175-7.3309,0-12.15026,3.47973-22,7.77219-22-12.15026,0-22,9.84974-22,22,0,12.15026,9.84974,22,22,22,12.15026,0,22-9.84974,22-22Z"></path>
    <g>
      <path class="cls-3" d="m39.28365,24.71635c-1.06669-8.54635-3.94596-14.6697-7.3304-14.66968-4.29237.00009-7.77216,9.84978-7.77225,21.99993.00004,2.57041.15559,5.03766.4418,7.3307l14.66085-14.66095Z"></path>
      <path class="cls-2" d="m31.95325,39.81884c12.1503.00006,21.99999-3.47972,22.00008-7.77209-.00013-3.38459-6.1233-6.26375-14.66968-7.3304l-14.66085,14.66095c2.29291.28543,4.76029.44157,7.33045.44155Z"></path>
    </g>
    <path class="cls-4" d="m29.15118,34.84881s7.56338,1.27373,11.76169-2.92458c.00397-.10651.01588-.2113.01623-.31937-.00017-2.37216-.90047-4.52854-2.36768-6.16632-1.63777-1.46721-3.79412-2.36748-6.16628-2.36765-.10807.00035-.21286.01226-.31937.01623-4.19832,4.19831-2.92459,11.76169-2.92459,11.76169Z"></path>
  </g>
</svg>
