<?xml version="1.0" encoding="UTF-8"?>
<svg xmlns="http://www.w3.org/2000/svg" xmlns:xlink="http://www.w3.org/1999/xlink" id="Layer_1" data-name="Layer 1" viewBox="0 0 64 64">
  <defs>
    <style>
      .cls-1, .cls-2, .cls-3, .cls-4, .cls-5, .cls-6, .cls-7, .cls-8 {
        stroke-width: 0px;
      }

      .cls-1, .cls-9 {
        fill: none;
      }

      .cls-2 {
        fill: url(#radial-gradient);
      }

      .cls-9 {
        stroke: #005496;
        stroke-width: 2px;
      }

      .cls-3 {
        fill: #fff;
        opacity: .15;
      }

      .cls-4 {
        fill: #009fb9;
      }

      .cls-5 {
        fill: #00b8c4;
      }

      .cls-6 {
        fill: #005496;
      }

      .cls-7 {
        fill: #006da2;
      }

      .cls-8 {
        fill: #0086ad;
      }
    </style>
    <radialGradient id="radial-gradient" cx="20.17616" cy="22.31691" fx="20.17616" fy="22.31691" r="8.8447" gradientTransform="translate(2.78587 -17.85176) rotate(1.0071) scale(.99873 2.21828) skewX(.0283)" gradientUnits="userSpaceOnUse">
      <stop offset="0" stop-color="#00b8c4"></stop>
      <stop offset="1" stop-color="#005496"></stop>
    </radialGradient>
  </defs>
  <rect class="cls-1" width="64" height="64"></rect>
  <g>
    <g>
      <line class="cls-9" x1="29.70336" y1="12.73281" x2="26.59982" y2="16.77407"></line>
      <line class="cls-9" x1="22.07448" y1="10" x2="22.07448" y2="15.12165"></line>
      <line class="cls-9" x1="14.44594" y1="12.73195" x2="17.74469" y2="16.61617"></line>
      <line class="cls-9" x1="10" y1="22.09484" x2="14.99187" y2="22.15156"></line>
      <line class="cls-9" x1="10" y1="28.69828" x2="14.99187" y2="28.69828"></line>
      <line class="cls-9" x1="10" y1="35.30172" x2="14.99187" y2="35.30172"></line>
      <line class="cls-9" x1="10" y1="41.90516" x2="14.99187" y2="42.00563"></line>
      <line class="cls-9" x1="14.44594" y1="51.26805" x2="17.73579" y2="47.41862"></line>
      <line class="cls-9" x1="22.07448" y1="54" x2="22.07448" y2="48.91687"></line>
      <line class="cls-9" x1="29.70294" y1="51.26805" x2="26.45976" y2="47.38208"></line>
      <g>
        <path class="cls-5" d="m14.99187,22.25287c0-3.93061,3.17721-7.13122,7.08262-7.13122s7.0829,3.20061,7.0829,7.13122v19.536c0,3.93061-3.1775,7.128-7.0829,7.128s-7.08262-3.19739-7.08262-7.128v-19.536Z"></path>
        <path class="cls-4" d="m16.48986,22.25286c0-3.09703,2.50775-5.62349,5.58456-5.62349s5.58478,2.52646,5.58478,5.62349v19.53596c0,3.09666-2.50796,5.62034-5.58478,5.62034s-5.58456-2.52368-5.58456-5.62034v-19.53596Z"></path>
        <path class="cls-8" d="m17.98785,22.25284c0-2.26345,1.83829-4.11577,4.08651-4.11577s4.08666,1.85232,4.08666,4.11577v19.53592c0,2.26272-1.83843,4.11269-4.08666,4.11269s-4.08651-1.84997-4.08651-4.11269v-19.53592Z"></path>
        <path class="cls-7" d="m19.48584,22.25282c0-1.42987,1.16883-2.60804,2.58846-2.60804s2.58853,1.17817,2.58853,2.60804v19.53588c0,1.42877-1.1689,2.60503-2.58853,2.60503s-2.58846-1.17626-2.58846-2.60503v-19.53588Z"></path>
        <path class="cls-6" d="m22.07424,42.88603c-.59105,0-1.09041-.50256-1.09041-1.09738v-19.53585c0-.59629.49937-1.10032,1.09041-1.10032s1.09041.50403,1.09041,1.10032v19.53585c0,.59482-.49937,1.09738-1.09041,1.09738Z"></path>
      </g>
    </g>
    <g>
      <line class="cls-9" x1="48.056" y1="28.69828" x2="45.57304" y2="28.69828"></line>
      <line class="cls-9" x1="34.70094" y1="28.69828" x2="29.92639" y2="28.69828"></line>
      <line class="cls-9" x1="42.77627" y1="28.69828" x2="37.47158" y2="28.69828"></line>
      <line class="cls-9" x1="54" y1="28.69828" x2="50.44249" y2="28.69828"></line>
    </g>
    <g>
      <line class="cls-9" x1="42.57318" y1="35.30172" x2="40.09021" y2="35.30172"></line>
      <line class="cls-9" x1="37.47158" y1="35.30172" x2="34.70094" y2="35.30172"></line>
      <line class="cls-9" x1="32.21797" y1="35.30172" x2="29.92639" y2="35.30172"></line>
      <line class="cls-9" x1="53.94415" y1="35.30172" x2="45.19049" y2="35.30172"></line>
    </g>
    <g>
      <line class="cls-9" x1="46.24937" y1="41.90516" x2="44.84708" y2="41.90516"></line>
      <line class="cls-9" x1="35.81254" y1="41.90516" x2="33.98181" y2="41.90516"></line>
      <line class="cls-9" x1="32.00527" y1="41.90516" x2="29.71369" y2="41.90516"></line>
      <line class="cls-9" x1="42.31037" y1="41.90516" x2="37.47158" y2="41.90516"></line>
      <line class="cls-9" x1="53.94415" y1="41.90516" x2="48.58295" y2="41.90516"></line>
    </g>
    <g>
      <line class="cls-9" x1="33.98181" y1="22.09484" x2="30.10602" y2="22.09484"></line>
      <line class="cls-9" x1="53.94415" y1="22.09484" x2="48.61588" y2="22.09484"></line>
      <line class="cls-9" x1="46.08857" y1="22.09484" x2="42.02781" y2="22.09484"></line>
      <line class="cls-9" x1="39.40257" y1="22.09484" x2="36.56141" y2="22.09484"></line>
    </g>
    <path class="cls-2" d="m14.99148,22.23361c0-3.93061,3.17721-7.13122,7.08262-7.13122s7.0829,3.20061,7.0829,7.13122v19.536c0,3.93061-3.1775,7.128-7.0829,7.128s-7.08262-3.19739-7.08262-7.128v-19.536Z"></path>
    <path class="cls-3" d="m22.07424,45.88222c-2.253,0-4.0866-1.84483-4.0866-4.11271v-19.53585c0-2.26984,1.83361-4.11614,4.0866-4.11614v27.76469Z"></path>
  </g>
</svg>
