<?xml version="1.0" encoding="UTF-8"?>
<svg xmlns="http://www.w3.org/2000/svg" xmlns:xlink="http://www.w3.org/1999/xlink" id="Layer_1" data-name="Layer 1" viewBox="0 0 64 64">
  <defs>
    <style>
      .cls-1, .cls-2 {
        fill: none;
      }

      .cls-3 {
        fill: #fff;
      }

      .cls-4 {
        fill: #6abf6a;
      }

      .cls-5 {
        fill: #009d4e;
      }

      .cls-2 {
        stroke: url(#linear-gradient);
        stroke-width: 1.5px;
      }

      .cls-6 {
        fill: url(#radial-gradient);
      }
    </style>
    <radialGradient id="radial-gradient" cx="31.99546" cy="20.79386" fx="31.99546" fy="20.79386" r="9.27685" gradientUnits="userSpaceOnUse">
      <stop offset="0" stop-color="#676f7f"></stop>
      <stop offset="1" stop-color="#000"></stop>
    </radialGradient>
    <linearGradient id="linear-gradient" x1="44.2446" y1="47.2" x2="45.7446" y2="47.2" gradientUnits="userSpaceOnUse">
      <stop offset="0" stop-color="#009d4e"></stop>
      <stop offset=".5" stop-color="#6abf6a"></stop>
      <stop offset="1" stop-color="#009d4e"></stop>
    </linearGradient>
  </defs>
  <rect class="cls-1" width="64" height="64"></rect>
  <g>
    <g>
      <path class="cls-6" d="m24.53808,13.58259l2.05175-2.57863c.24721-.30985.73703-.65374,2.5006-.85877,1.04009-.12092,2.33086-.16833,3.63527-.13462,4.25843.11006,4.80411.87154,4.98297,1.12104l1.74415,2.43472-.6448,5.8698-1.20872,7.79274c-.25747,3.60103-2.28415,4.35883-3.94172,4.35883h-3.31742c-1.65757,0-3.68426-.75781-3.94172-4.35883l-1.20416-7.76838-.6562-5.87792Z"></path>
      <path d="m38.80803,19.43614h4.78589c.03304,0,.06721-.00235.10025-.00696,1.98661-.27762,3.433-1.47016,4.17982-3.45016.53922-1.4296.51499-2.77127.51378-2.82814-.00865-.40967-.33835-.72821-.7405-.72821h-5.18461c-1.13239-.09284-2.18959.34641-3.00984,1.14367l-.6448,5.8698Z"></path>
      <path d="m24.53808,13.58259c-.82024-.79146-1.87289-1.22723-3.00072-1.13439h-5.18462c-.40215,0-.73184.31855-.7405.72821-.0012.05686-.02624,1.39841.51265,2.82697.74728,1.98099,2.19208,3.17245,4.17982,3.45016.03304.00462.06721.00696.10025.00696h4.78931l-.6562-5.87792Z"></path>
      <path class="cls-3" d="m36.06043,13.4101c-.4495.43177-.78692.9241-.92389,1.47918-.30155,1.23049-.21748,2.44812-.9172,3.6085-.75095,1.24453-1.70767,2.215-1.68488,3.67024.023,1.49589.74321,3.02874,2.03202,4.12173.1857.15783.72648.60289.80804.67026.2775.23401.55208.46976.81891.7113.13028.11779.25011.24177.37579.36159.04831.04682.1719.1157.18319.1778.00648.02651-.01276.05069-.04203.06653-.03388.01717-.07884.02285-.11564.00651-.1031-.04527-.17169-.16037-.25199-.22797-.22752-.18949-.50252-.36604-.77228-.51446-.43915-.24177-.95714-.4139-1.45778-.55712-.61523-.17524-1.28964-.24877-1.9421-.24877-.52656,0-1.09349.0533-1.60521.1508-.75973.14607-1.56004.42611-2.21876.7641-.12819.06603-.25053.12688-.36575.2098-.09912.071-.21142.18484-.34672.21218-.10059.02031-.16667-.02235-.16186-.10553.00356-.09335.10581-.16766.18382-.22799.24718-.19134.48307-.39147.70453-.60263.35927-.34419.77374-.65256,1.13322-.99573,1.17923-1.12258,1.85322-2.49862,1.87706-3.97161.023-1.45584-.93435-2.42603-1.68593-3.67066-.69992-1.16028-.61628-2.37772-.91783-3.6085-.156-.6375-.57864-1.1871-1.12256-1.66052-.26788-.23296-.78859-.46772-.79256-.81217-.00481-.56886.84882-.68346,1.3482-.77965.11543-.02209.23296-.04318.34588-.07515.32246-.09201,2.81789-.44404,3.64517-.44404.82707,0,2.43248.23625,2.93835.44404.51464.21166,1.90299.10401,2.00462.75294.07424.45758-.76455.79791-1.07383,1.095Z"></path>
    </g>
    <g>
      <line class="cls-2" x1="44.9946" y1="54" x2="44.9946" y2="40.4"></line>
      <g>
        <path class="cls-4" d="m40.64275,40.33723c0,3.00018,4.35186,6.33723,4.35186,6.33723v-12.67446s-4.35186,3.33746-4.35186,6.33723Z"></path>
        <path class="cls-5" d="m49.34647,40.33723c0-2.99977-4.35186-6.33723-4.35186-6.33723v12.67446s4.35186-3.33705,4.35186-6.33723Z"></path>
      </g>
      <g>
        <path class="cls-4" d="m41.39648,45.00049c2.11975,2.13675,3.59766,6.64862,3.59766,6.64862l-8.97713-8.46336c.24297-.02044,3.34382-.23724,5.37947,1.81474Z"></path>
        <path class="cls-5" d="m38.99808,49.83586c-2.11975-2.13675-2.99808-6.64864-2.99808-6.64864,0,0,.00692-.00062.01702-.00147l8.97713,8.46336s-3.87631.3235-5.99606-1.81325Z"></path>
      </g>
      <g>
        <path class="cls-4" d="m48.60352,45.00049c-2.11975,2.13675-3.59766,6.64862-3.59766,6.64862l8.97713-8.46336c-.24297-.02044-3.34382-.23724-5.37947,1.81474Z"></path>
        <path class="cls-5" d="m51.00192,49.83586c2.11975-2.13675,2.99808-6.64864,2.99808-6.64864,0,0-.00692-.00062-.01702-.00147l-8.97713,8.46336s3.87631.3235,5.99606-1.81325Z"></path>
      </g>
    </g>
  </g>
</svg>
