<?xml version="1.0" encoding="UTF-8"?>
<svg xmlns="http://www.w3.org/2000/svg" id="Layer_1" data-name="Layer 1" viewBox="0 0 64 64">
  <defs>
    <style>
      .cls-1 {
        fill: none;
      }

      .cls-2, .cls-3 {
        fill: #00b8c4;
      }

      .cls-4 {
        fill: #fff;
      }

      .cls-5 {
        fill: #009ca2;
      }

      .cls-6 {
        opacity: .2;
      }

      .cls-3 {
        stroke: #009ca2;
        stroke-linejoin: round;
        stroke-width: 2px;
      }
    </style>
  </defs>
  <rect class="cls-1" width="64" height="64"></rect>
  <g>
    <g>
      <line class="cls-3" x1="14.31301" y1="50.70093" x2="22.71915" y2="41.71543"></line>
      <g>
        <path class="cls-2" d="m31.98242,44.34863c-6.89941,0-12.5127-5.54004-12.5127-12.34863s5.61328-12.34863,12.5127-12.34863,12.51221,5.54004,12.51221,12.34863-5.61279,12.34863-12.51221,12.34863Z"></path>
        <path class="cls-5" d="m31.98219,20.65094c6.3481,0,11.51265,5.09119,11.51265,11.34906s-5.16455,11.34906-11.51265,11.34906-11.51266-5.09119-11.51266-11.34906,5.16457-11.34906,11.51266-11.34906m0-2c-7.46284,0-13.51266,5.97656-13.51266,13.34906s6.04982,13.34906,13.51266,13.34906,13.51265-5.97656,13.51265-13.34906-6.04982-13.34906-13.51265-13.34906h0Z"></path>
      </g>
      <g class="cls-6">
        <path class="cls-4" d="m41.53699,22.56079c-5.27702-5.21318-13.83272-5.21321-19.1097-.00008-5.27697,5.21313-5.27694,13.66532.00008,18.8785l19.10961-18.87841Z"></path>
      </g>
    </g>
    <g>
      <line class="cls-3" x1="41.16066" y1="22.2069" x2="43.71626" y2="19.41953"></line>
      <g>
        <path class="cls-2" d="m46.42627,20.06934c-1.97021,0-3.57324-1.57812-3.57324-3.51855,0-1.93945,1.60303-3.51758,3.57324-3.51758,1.9707,0,3.57373,1.57812,3.57373,3.51758,0,1.94043-1.60303,3.51855-3.57373,3.51855Z"></path>
        <path class="cls-5" d="m46.42648,14.0329c1.41904,0,2.57352,1.12964,2.57352,2.51813s-1.15448,2.51813-2.57352,2.51813-2.57352-1.12964-2.57352-2.51813,1.15448-2.51813,2.57352-2.51813m0-2c-2.52588,0-4.57352,2.02283-4.57352,4.51813s2.04764,4.51813,4.57352,4.51813,4.57352-2.02283,4.57352-4.51813-2.04764-4.51813-4.57352-4.51813h0Z"></path>
      </g>
    </g>
    <g>
      <line class="cls-3" x1="22.75213" y1="22.25577" x2="20.24674" y2="19.42078"></line>
      <g>
        <path class="cls-2" d="m17.57812,20.03711c-.09814,0-.19727-.00391-.29688-.0127-.96094-.07715-1.83105-.52148-2.44971-1.25-.60498-.71289-.896-1.61523-.81934-2.54102.15039-1.81348,1.71191-3.2334,3.55566-3.2334.09863,0,.19824.00391.29834.0127.96143.07715,1.83154.52148,2.44971,1.25.60498.71289.896,1.61523.81934,2.54102-.1499,1.81348-1.7124,3.2334-3.55664,3.2334h-.00049Z"></path>
        <path class="cls-5" d="m17.56874,14c.07173,0,.14415.00287.2168.00879.69472.05615,1.32265.3761,1.76813.901.43199.50897.63983,1.15247.58521,1.81195-.1075,1.29816-1.23199,2.315-2.56,2.315-.07169,0-.14413-.00287-.21689-.00879-.69472-.05609-1.32265-.3761-1.76813-.901-.43199-.50897-.63983-1.15247-.58521-1.81195.1075-1.29816,1.23203-2.315,2.56009-2.315m0-2c-2.35701,0-4.35768,1.78821-4.55327,4.14996-.20596,2.487,1.66789,4.66803,4.18536,4.87152.12677.01025.25305.01532.37804.01532,2.35701,0,4.35759-1.78827,4.55318-4.15002.20596-2.487-1.66789-4.66803-4.18536-4.87152-.12677-.01025-.25296-.01526-.37794-.01526h0Z"></path>
      </g>
    </g>
    <g>
      <line class="cls-3" x1="41.21185" y1="41.74383" x2="43.71763" y2="44.57922"></line>
      <g>
        <path class="cls-2" d="m46.39648,51c-.09863,0-.19824-.00391-.29834-.0127-.96143-.07715-1.83154-.52148-2.44971-1.25-.60498-.71289-.896-1.61523-.81934-2.54102.1499-1.81348,1.7124-3.2334,3.55713-3.2334.09814,0,.19727.00391.29688.0127.96143.07715,1.83105.52148,2.44971,1.25.60498.71289.896,1.61523.81934,2.54102-.1499,1.81348-1.71143,3.2334-3.55518,3.2334h-.00049Z"></path>
        <path class="cls-5" d="m46.38551,44.96326c.07169,0,.14413.00287.21689.00879.69472.05609,1.32265.3761,1.76813.901.43198.50897.6398,1.15247.58519,1.81195-.1075,1.29816-1.23204,2.315-2.56009,2.315-.07173,0-.14415-.00287-.21681-.00879-.6947-.05615-1.32262-.3761-1.7681-.901-.43199-.50897-.63983-1.15247-.58521-1.81195.1075-1.29816,1.23199-2.315,2.56-2.315m0-2.00006c-2.35701,0-4.35759,1.78827-4.55318,4.15002-.20596,2.487,1.66788,4.66803,4.18535,4.87152.12677.01025.25296.01526.37794.01526,2.35701,0,4.35768-1.78821,4.55327-4.14996.20596-2.487-1.66789-4.66803-4.18535-4.87152-.12677-.01025-.25305-.01532-.37804-.01532h0Z"></path>
      </g>
    </g>
  </g>
</svg>
