<?xml version="1.0" encoding="UTF-8"?>
<svg xmlns="http://www.w3.org/2000/svg" xmlns:xlink="http://www.w3.org/1999/xlink" id="Layer_1" data-name="Layer 1" viewBox="0 0 64 64">
  <defs>
    <style>
      .cls-1, .cls-2, .cls-3, .cls-4, .cls-5 {
        stroke-width: 0px;
      }

      .cls-1, .cls-6, .cls-7 {
        fill: none;
      }

      .cls-2 {
        fill: url(#linear-gradient);
      }

      .cls-6 {
        stroke: #00b8c4;
      }

      .cls-6, .cls-7 {
        stroke-linejoin: round;
        stroke-width: 1.5px;
      }

      .cls-7 {
        stroke: #44a8df;
      }

      .cls-3 {
        fill: url(#linear-gradient-2);
      }

      .cls-4 {
        fill: url(#linear-gradient-3);
      }

      .cls-5 {
        fill: #005496;
      }
    </style>
    <linearGradient id="linear-gradient" x1="33.24674" y1="46.98181" x2="33.24674" y2="29.39924" gradientUnits="userSpaceOnUse">
      <stop offset="0" stop-color="#9ba7ba"></stop>
      <stop offset="1" stop-color="#fff"></stop>
    </linearGradient>
    <linearGradient id="linear-gradient-2" x1="27.63523" x2="27.63523" y2="41.41473" xlink:href="#linear-gradient"></linearGradient>
    <linearGradient id="linear-gradient-3" x1="34.85501" y1="39.39847" x2="34.85501" xlink:href="#linear-gradient"></linearGradient>
  </defs>
  <rect class="cls-1" width="64" height="64"></rect>
  <g>
    <path class="cls-5" d="m54,32c0,12.15024-9.8502,22-22.00097,22s-21.99903-9.84976-21.99903-22S19.84826,10,31.99903,10s22.00097,9.84976,22.00097,22Z"></path>
    <g>
      <g id="icn_biotech">
        <path class="cls-7" d="m31.55554,25.35116l-.58459,1.60762c-.23912.65757-.98718,1.19558-1.66237,1.19558h-1.22762"></path>
        <path class="cls-7" d="m39.61266,21.62824l-.58458-1.6076c-.23912-.65757-1.00724-1.19558-1.70693-1.19558h-2.1203c-.6997,0-1.46782.53801-1.70693,1.19558l-.58457,1.60758"></path>
        <path class="cls-7" d="m45.80232,28.15436h-2.54436c-.6997,0-1.46782-.53801-1.70693-1.19558l-.58458-1.6076"></path>
        <line class="cls-7" x1="36.261" y1="26.03407" x2="36.261" y2="18.82506"></line>
        <line class="cls-7" x1="28.44031" y1="28.15436" x2="28.44031" y2="20.94536"></line>
        <line class="cls-7" x1="44.08168" y1="28.15436" x2="44.08168" y2="20.94536"></line>
      </g>
      <g id="icn_biotech-2" data-name="icn_biotech">
        <path class="cls-7" d="m23.88166,21.62824l-.58458-1.6076c-.23912-.65757-1.00724-1.19558-1.70693-1.19558h-3.39247"></path>
        <path class="cls-7" d="m28.71003,28.15436h-1.22762c-.67519,0-1.42326-.53801-1.66237-1.19558l-.58458-1.6076"></path>
        <line class="cls-7" x1="20.53001" y1="26.03407" x2="20.53001" y2="18.82506"></line>
      </g>
    </g>
    <g>
      <path class="cls-2" d="m36.84451,41.41473c-.87377,0-1.65258.40326-2.16283,1.03305-.08357-.01654-.15555-.10441-.23719-.28808-.90063-1.96896-5.36422-11.3035-6.03947-12.76046l-1.53957,3.71656c.01203.02632,2.88707,5.98574,3.66223,7.70336.41873.96352.94252,1.31965,1.94799,1.13113.27221-.04187.356.06287.43979.25131.40455.88623.82543,1.78895,1.23299,2.67803.30443,1.20729,1.39434,2.10219,2.69607,2.10219,1.53742,0,2.78352-1.24623,2.78352-2.78354s-1.24609-2.78354-2.78352-2.78354Zm-4.83291-.18831c-.37533,0-.67955-.30427-.67955-.6796s.30422-.6796.67955-.6796.67955.30427.67955.6796-.30422.6796-.67955.6796Zm4.83291,4.77866c-.99773,0-1.80684-.80894-1.80684-1.80681s.8091-1.80681,1.80684-1.80681c.99795,0,1.80684.80894,1.80684,1.80681s-.80889,1.80681-1.80684,1.80681Z"></path>
      <g>
        <path class="cls-3" d="m29.86875,41.48665c-.10355.22435-.21076.4487-.31324.67305-.08164.18366-.15361.27154-.23719.28808-.51025-.62979-1.28906-1.03305-2.16283-1.03305-1.53742,0-2.78352,1.24623-2.78352,2.78354s1.24609,2.78354,2.78352,2.78354c1.30174,0,2.39164-.8949,2.69607-2.10219l1.04693-2.27391c-.53281-.29469-.84906-.76834-1.02975-1.11907Zm-2.71326,4.51843c-.99795,0-1.80684-.80894-1.80684-1.80681s.80889-1.80681,1.80684-1.80681c.99773,0,1.80684.80894,1.80684,1.80681s-.8091,1.80681-1.80684,1.80681Z"></path>
        <path class="cls-4" d="m34.1291,39.39847c.57385-1.23605,3.08335-6.25636,3.09538-6.28268l-1.53957-3.71656c-.62047,1.33869-2.57932,5.1605-3.19936,6.49956l1.64355,3.49967Z"></path>
      </g>
    </g>
    <path class="cls-6" d="m45.80232,18.82506h-2.54435c-.6997,0-1.46782.53801-1.70693,1.19558l-2.52296,6.93813c-.23912.65757-1.00724,1.19558-1.70693,1.19558h-2.1203c-.6997,0-1.46782-.53801-1.70693-1.19558l-2.52296-6.93813c-.23912-.65757-1.00724-1.19558-1.70693-1.19558h-1.73705c-.6997,0-1.46782.53801-1.70693,1.19558l-2.52296,6.93813c-.23912.65757-1.00724,1.19558-1.70693,1.19558h-3.39247"></path>
  </g>
</svg>
