<?xml version="1.0" encoding="UTF-8"?>
<svg id="Layer_2" data-name="Layer 2" xmlns="http://www.w3.org/2000/svg" xmlns:xlink="http://www.w3.org/1999/xlink" viewBox="0 0 365.72 172.06">
  <defs>
    <style>
      .cls-1 {
        fill: none;
      }

      .cls-2 {
        fill: #db2790;
      }

      .cls-3 {
        clip-path: url(#clippath-1);
      }

      .cls-4 {
        fill: #fff;
      }

      .cls-5 {
        clip-path: url(#clippath);
      }
    </style>
    <clipPath id="clippath">
      <rect class="cls-1" y="57.99" width="365.72" height="114.07"/>
    </clipPath>
    <clipPath id="clippath-1">
      <rect class="cls-1" y="57.99" width="365.72" height="114.07"/>
    </clipPath>
  </defs>
  <g id="Layer_1-2" data-name="Layer 1">
    <g id="logo_vega_white">
      <g class="cls-5">
        <g class="cls-3">
          <path class="cls-2" d="M246.77,86.41c12.99,2.33,16.38,5.72,18.71,18.71.22,1.2,1.94,1.2,2.16,0,2.34-12.99,5.73-16.38,18.71-18.71,1.2-.22,1.2-1.94,0-2.16-12.99-2.34-16.38-5.72-18.71-18.71-.22-1.2-1.94-1.2-2.16,0-2.33,12.99-5.73,16.38-18.71,18.71-1.21.22-1.21,1.94,0,2.16"/>
          <path class="cls-2" d="M279.03,68.88c6.49,1.17,8.19,2.86,9.36,9.36.11.6.97.6,1.08,0,1.17-6.5,2.86-8.19,9.36-9.36.6-.11.6-.97,0-1.08-6.49-1.17-8.19-2.86-9.36-9.36-.11-.6-.97-.6-1.08,0-1.17,6.49-2.86,8.19-9.36,9.36-.6.11-.6.97,0,1.08"/>
          <path class="cls-4" d="M83.62,79.12h-7.41c-3.12,0-6.24,2.21-7.41,4.94l-25.09,61.1-25.09-61.1c-1.3-2.73-4.42-4.94-7.41-4.94H3.68c-3.12,0-4.42,2.21-3.25,4.94l34.19,81.76c1.17,2.34,3.9,4.29,6.63,4.29h4.81c2.73,0,5.59-1.95,6.63-4.29l34.19-81.76c1.17-2.73-.13-4.94-3.25-4.94"/>
          <path class="cls-4" d="M162.78,153.99h-44.98v-21.84h37.05c3.12,0,5.46-2.34,5.46-5.33v-5.46c0-2.99-2.34-5.33-5.46-5.33h-37.05v-20.8h44.33c3.12,0,5.33-2.34,5.33-5.33v-5.46c0-2.99-2.21-5.33-5.33-5.33h-56.42c-2.99,0-5.33,2.34-5.33,5.33v80.33c0,2.99,2.34,5.33,5.33,5.33h57.07c3.12,0,5.33-2.34,5.33-5.33v-5.46c0-2.99-2.21-5.33-5.33-5.33"/>
          <path class="cls-4" d="M225.82,77.17c-27.56,0-48.23,20.41-48.23,47.45s20.41,47.45,47.19,47.45,46.93-20.93,47.19-46.8c0-2.99-2.6-5.33-5.72-5.33h-37.57c-3.12,0-5.46,2.21-5.46,5.33v5.07c0,3.12,2.34,5.46,5.46,5.46h23.27c-3.77,11.7-15.21,19.37-27.43,19.37-16.12,0-28.73-13.13-28.73-30.55s11.55-30.06,30.61-30.58c10.18.02,9.02-16.87-.58-16.87"/>
          <path class="cls-4" d="M365.3,165.17l-34.84-81.76c-1.04-2.47-3.9-4.29-6.63-4.29h-4.81c-2.73,0-5.46,1.82-6.63,4.29l-34.84,81.76c-1.17,2.73.13,4.94,3.25,4.94h7.54c2.99,0,6.24-2.21,7.54-4.94l5.07-12.22h41.08l5.07,12.22c1.17,2.73,4.42,4.94,7.54,4.94h7.41c3.12,0,4.42-2.21,3.25-4.94M307.71,136.96l13.78-33.15,13.78,33.15h-27.56Z"/>
        </g>
      </g>
    </g>
    <g>
      <path class="cls-4" d="M5.12,36.21H.54V.56h4.58v35.65Z"/>
      <path class="cls-4" d="M17.5,36.21h-4.43V.56h4.02l22.05,27.71V.56h4.43v35.65h-4.02L17.5,8.51v27.71Z"/>
      <path class="cls-4" d="M62.27,4.84h-13.34V.56h31.27v4.28h-13.34v31.37h-4.58V4.84Z"/>
      <path class="cls-4" d="M85.54.56h16.15c3.29,0,6.04,1.05,8.25,3.16,2.21,2.11,3.31,4.72,3.31,7.84,0,2.41-.67,4.54-2.01,6.39-1.34,1.85-3.15,3.17-5.42,3.95l8.76,14.31h-5.14l-8.35-13.65h-10.95v13.65h-4.58V.56ZM101.69,4.84h-11.56v13.45h11.56c1.94,0,3.55-.64,4.84-1.94s1.94-2.89,1.94-4.79-.65-3.54-1.94-4.81c-1.29-1.27-2.9-1.91-4.84-1.91Z"/>
      <path class="cls-4" d="M136.32,0c5.23,0,9.61,1.77,13.14,5.3,3.53,3.53,5.3,7.89,5.3,13.09s-1.77,9.61-5.3,13.14-7.88,5.25-13.14,5.25-9.64-1.75-13.14-5.25c-3.5-3.5-5.25-7.88-5.25-13.14s1.75-9.59,5.25-13.09,7.91-5.3,13.14-5.3ZM136.32,32.34c3.87,0,7.11-1.32,9.73-3.97,2.61-2.72,3.92-6.04,3.92-9.98s-1.31-7.25-3.92-9.93c-2.58-2.68-5.82-4.02-9.73-4.02s-7.15,1.34-9.73,4.02c-2.61,2.68-3.92,5.99-3.92,9.93s1.31,7.27,3.92,9.98c2.61,2.65,5.86,3.97,9.73,3.97Z"/>
      <path class="cls-4" d="M175.39,36.21h-14.11V.56h14.11c5.19,0,9.56,1.72,13.09,5.14,3.53,3.43,5.3,7.66,5.3,12.68s-1.77,9.25-5.3,12.68c-3.53,3.43-7.89,5.14-13.09,5.14ZM175.39,4.84h-9.52v27.1h9.52c3.84,0,7.06-1.31,9.68-3.92s3.92-5.82,3.92-9.63-1.31-7.06-3.92-9.68c-2.58-2.58-5.81-3.87-9.68-3.87Z"/>
      <path class="cls-4" d="M225.56,21.95V.56h4.64v21.39c0,4.21-1.46,7.74-4.38,10.59-2.92,2.82-6.52,4.23-10.8,4.23s-7.93-1.41-10.85-4.23c-2.89-2.85-4.33-6.38-4.33-10.59V.56h4.58v21.39c0,3.02,1,5.54,3,7.54,2.07,2,4.6,3,7.59,3s5.48-1,7.49-3,3.06-4.55,3.06-7.54Z"/>
      <path class="cls-4" d="M254.64,0c3.46,0,6.61.82,9.45,2.47,2.83,1.65,5.07,3.91,6.7,6.8l-4.48,1.68c-1.22-2.04-2.85-3.63-4.89-4.79-2.04-1.15-4.3-1.73-6.77-1.73-3.91,0-7.15,1.34-9.73,4.02-2.61,2.68-3.92,5.99-3.92,9.93s1.31,7.27,3.92,9.98c2.61,2.65,5.86,3.97,9.73,3.97,2.48,0,4.74-.58,6.77-1.73,2.04-1.15,3.67-2.75,4.89-4.79l4.48,1.68c-1.63,2.89-3.86,5.15-6.7,6.8-2.84,1.65-5.98,2.47-9.45,2.47-5.26,0-9.64-1.75-13.14-5.25-3.5-3.5-5.25-7.88-5.25-13.14s1.75-9.59,5.25-13.09,7.91-5.3,13.14-5.3Z"/>
      <path class="cls-4" d="M281.73,36.21h-4.58V.56h4.58v35.65Z"/>
      <path class="cls-4" d="M294.11,36.21h-4.43V.56h4.02l22.05,27.71V.56h4.43v35.65h-4.02l-22.05-27.71v27.71Z"/>
      <path class="cls-4" d="M326.76,18.39c0-5.23,1.78-9.61,5.35-13.14,3.53-3.5,7.98-5.25,13.34-5.25,3.53,0,6.73.82,9.6,2.47,2.87,1.65,5.12,3.91,6.75,6.8l-4.48,1.68c-1.22-2.04-2.88-3.63-4.97-4.79-2.09-1.15-4.39-1.73-6.9-1.73-3.94,0-7.25,1.34-9.93,4.02-2.68,2.65-4.02,5.96-4.02,9.93s1.29,7.3,3.87,9.98c2.58,2.65,5.76,3.97,9.52,3.97,3.23,0,6.09-1,8.61-3,2.51-2.04,4.04-4.63,4.58-7.79h-14.16v-4.28h19.3c.07.81.1,1.32.1,1.53-.1,5.13-1.9,9.41-5.4,12.83-3.53,3.43-7.83,5.14-12.89,5.14s-9.54-1.75-13.04-5.25c-3.5-3.5-5.25-7.88-5.25-13.14Z"/>
    </g>
  </g>
</svg>